<svg data-v-fde0c5aa="" xmlns="http://www.w3.org/2000/svg" viewBox="0 0 300 300" class="iconLeftSlogan"><!----><defs data-v-fde0c5aa=""><!----></defs><rect data-v-fde0c5aa="" fill="transparent" x="0" y="0" width="300px" height="300px" class="logo-background-square"></rect><defs data-v-fde0c5aa=""><!----></defs><g data-v-fde0c5aa="" id="d1022300-f98b-4e8b-83a2-3d0152dcea25" fill="#000000" transform="matrix(2.6910847090766574,0,0,2.6910847090766574,125.33811869404241,116.64138518716992)"><path d="M4.58 13.72L0.52 13.72L0.52 13.15L1.72 12.84L1.72 6.02L0.50 5.71L0.50 5.14L4.58 5.14L4.58 5.71L3.36 6.02L3.36 12.84L4.58 13.15L4.58 13.72ZM8.67 13.86L8.67 13.86Q7.06 13.86 6.29 12.87L6.29 12.87L6.29 12.87Q5.52 11.89 5.52 10.30L5.52 10.30L5.52 10.30Q5.52 8.68 6.28 7.69L6.28 7.69L6.28 7.69Q7.04 6.71 8.67 6.71L8.67 6.71L8.67 6.71Q9.34 6.71 9.90 6.81L9.90 6.81L9.90 6.81Q10.46 6.92 11.05 7.14L11.05 7.14L10.78 9.02L10.08 9.02L9.77 7.74L9.77 7.74Q9.31 7.56 8.81 7.56L8.81 7.56L8.81 7.56Q7.92 7.56 7.60 8.26L7.60 8.26L7.60 8.26Q7.28 8.96 7.28 10.28L7.28 10.28L7.28 10.28Q7.28 11.26 7.44 11.83L7.44 11.83L7.44 11.83Q7.60 12.40 7.96 12.66L7.96 12.66L7.96 12.66Q8.32 12.91 8.92 12.91L8.92 12.91L8.92 12.91Q9.94 12.91 10.98 12.59L10.98 12.59L11.07 13.15L11.07 13.15Q10.57 13.48 9.95 13.67L9.95 13.67L9.95 13.67Q9.34 13.86 8.67 13.86L8.67 13.86ZM15.01 13.86L15.01 13.86Q13.27 13.86 12.50 12.91L12.50 12.91L12.50 12.91Q11.73 11.96 11.73 10.30L11.73 10.30L11.73 10.30Q11.73 8.44 12.58 7.57L12.58 7.57L12.58 7.57Q13.43 6.71 14.87 6.71L14.87 6.71L14.87 6.71Q16.30 6.71 16.95 7.35L16.95 7.35L16.95 7.35Q17.61 7.99 17.61 9.37L17.61 9.37L17.61 9.37Q17.61 9.84 17.57 10.22L17.57 10.22L13.50 10.22L13.50 10.60L13.50 10.60Q13.50 11.82 13.99 12.37L13.99 12.37L13.99 12.37Q14.49 12.92 15.44 12.92L15.44 12.92L15.44 12.92Q16.28 12.92 17.43 12.60L17.43 12.60L17.54 13.15L17.54 13.15Q16.48 13.86 15.01 13.86L15.01 13.86ZM13.52 9.55L15.93 9.41L15.93 9.10L15.93 9.10Q15.93 8.34 15.72 7.96L15.72 7.96L15.72 7.96Q15.50 7.57 14.94 7.57L14.94 7.57L14.94 7.57Q14.17 7.57 13.87 8.04L13.87 8.04L13.87 8.04Q13.57 8.51 13.52 9.55L13.52 9.55ZM27.71 13.41L27.71 13.41Q27.08 13.64 26.49 13.75L26.49 13.75L26.49 13.75Q25.90 13.86 25.13 13.86L25.13 13.86L25.13 13.86Q23.04 13.86 22.03 12.61L22.03 12.61L22.03 12.61Q21.01 11.35 21.01 9.37L21.01 9.37L21.01 9.37Q21.01 7.39 22.02 6.16L22.02 6.16L22.02 6.16Q23.02 4.93 25.13 4.93L25.13 4.93L25.13 4.93Q25.93 4.93 26.49 5.03L26.49 5.03L26.49 5.03Q27.05 5.14 27.71 5.33L27.71 5.33L27.57 7.35L26.94 7.35L26.59 5.98L26.59 5.98Q26.03 5.81 25.38 5.81L25.38 5.81L25.38 5.81Q23.90 5.81 23.32 6.79L23.32 6.79L23.32 6.79Q22.75 7.77 22.75 9.37L22.75 9.37L22.75 9.37Q22.75 10.88 23.34 11.91L23.34 11.91L23.34 11.91Q23.94 12.95 25.33 12.95L25.33 12.95L25.33 12.95Q25.94 12.95 26.59 12.77L26.59 12.77L26.94 11.56L27.59 11.56L27.71 13.41ZM32.02 6.71L32.02 6.71Q33.78 6.71 34.61 7.69L34.61 7.69L34.61 7.69Q35.43 8.68 35.43 10.30L35.43 10.30L35.43 10.30Q35.43 11.89 34.59 12.87L34.59 12.87L34.59 12.87Q33.75 13.86 32.02 13.86L32.02 13.86L32.02 13.86Q30.32 13.86 29.49 12.87L29.49 12.87L29.49 12.87Q28.66 11.87 28.66 10.30L28.66 10.30L28.66 10.30Q28.66 8.68 29.48 7.69L29.48 7.69L29.48 7.69Q30.30 6.71 32.02 6.71L32.02 6.71ZM33.66 10.28L33.66 10.28Q33.66 8.97 33.29 8.26L33.29 8.26L33.29 8.26Q32.93 7.55 31.99 7.55L31.99 7.55L31.99 7.55Q31.11 7.55 30.77 8.26L30.77 8.26L30.77 8.26Q30.42 8.97 30.42 10.28L30.42 10.28L30.42 10.28Q30.42 11.56 30.79 12.29L30.79 12.29L30.79 12.29Q31.15 13.01 32.07 13.01L32.07 13.01L32.07 13.01Q32.98 13.01 33.32 12.29L33.32 12.29L33.32 12.29Q33.66 11.58 33.66 10.28L33.66 10.28ZM40.92 13.06L40.92 13.06Q39.83 13.86 38.65 13.86L38.65 13.86L38.65 13.86Q37.88 13.86 37.35 13.37L37.35 13.37L37.35 13.37Q36.82 12.88 36.55 12.08L36.55 12.08L36.55 12.08Q36.29 11.27 36.29 10.30L36.29 10.30L36.29 10.30Q36.29 8.62 37.09 7.67L37.09 7.67L37.09 7.67Q37.88 6.71 39.33 6.71L39.33 6.71L39.33 6.71Q39.69 6.71 40.03 6.78L40.03 6.78L40.03 6.78Q40.38 6.85 40.61 6.94L40.61 6.94L40.61 6.94Q40.85 7.03 40.88 7.06L40.88 7.06L40.88 4.75L39.72 4.59L39.72 4.05L41.97 3.50L42.52 3.50L42.52 12.68L43.65 13.02L43.65 13.55L43.65 13.55Q42.80 13.79 42.13 13.79L42.13 13.79L42.13 13.79Q41.71 13.79 41.36 13.59L41.36 13.59L41.36 13.59Q41.01 13.40 40.92 13.06L40.92 13.06ZM39.45 12.84L39.45 12.84Q39.86 12.84 40.26 12.68L40.26 12.68L40.26 12.68Q40.66 12.53 40.88 12.33L40.88 12.33L40.88 7.94L40.88 7.94Q40.64 7.76 40.30 7.65L40.30 7.65L40.30 7.65Q39.96 7.55 39.62 7.55L39.62 7.55L39.62 7.55Q38.85 7.55 38.45 8.27L38.45 8.27L38.45 8.27Q38.05 9.00 38.05 10.28L38.05 10.28L38.05 10.28Q38.05 11.47 38.39 12.15L38.39 12.15L38.39 12.15Q38.74 12.84 39.45 12.84L39.45 12.84ZM47.43 13.86L47.43 13.86Q45.70 13.86 44.93 12.91L44.93 12.91L44.93 12.91Q44.16 11.96 44.16 10.30L44.16 10.30L44.16 10.30Q44.16 8.44 45.00 7.57L45.00 7.57L45.00 7.57Q45.85 6.71 47.29 6.71L47.29 6.71L47.29 6.71Q48.72 6.71 49.38 7.35L49.38 7.35L49.38 7.35Q50.04 7.99 50.04 9.37L50.04 9.37L50.04 9.37Q50.04 9.84 49.99 10.22L49.99 10.22L45.92 10.22L45.92 10.60L45.92 10.60Q45.92 11.82 46.42 12.37L46.42 12.37L46.42 12.37Q46.91 12.92 47.87 12.92L47.87 12.92L47.87 12.92Q48.71 12.92 49.85 12.60L49.85 12.60L49.97 13.15L49.97 13.15Q48.90 13.86 47.43 13.86L47.43 13.86ZM45.95 9.55L48.36 9.41L48.36 9.10L48.36 9.10Q48.36 8.34 48.14 7.96L48.14 7.96L48.14 7.96Q47.92 7.57 47.36 7.57L47.36 7.57L47.36 7.57Q46.59 7.57 46.29 8.04L46.29 8.04L46.29 8.04Q45.99 8.51 45.95 9.55L45.95 9.55Z"></path></g><defs data-v-fde0c5aa=""><linearGradient data-v-fde0c5aa="" gradientTransform="rotate(25)" id="0189be50-e1e1-4e80-856d-93306cda4c78" x1="0%" y1="0%" x2="100%" y2="0%"><stop data-v-fde0c5aa="" offset="0%" stop-color="#E98E0D" stop-opacity="1"></stop><stop data-v-fde0c5aa="" offset="100%" stop-color="#1536F1" stop-opacity="1"></stop></linearGradient></defs><g data-v-fde0c5aa="" id="a4b1700d-f5bd-4430-add1-41976ac97ab3" stroke="none" fill="url(#0189be50-e1e1-4e80-856d-93306cda4c78)" transform="matrix(0.5801863074691397,0,0,0.5801863074691397,39.70990688084723,112.75204083106932)"><path d="M9.8 52.7v10.4c0 .4.3.8.8.8.4 0 .8-.3.8-.8V52.7c0-.4-.3-.8-.8-.8s-.8.3-.8.8zM10.6 70.6c.4 0 .8-.3.8-.8v-3.4c0-.4-.3-.8-.8-.8-.4 0-.8.3-.8.8v3.4c0 .5.3.8.8.8zM121.7 47.4c0-.4-.3-.8-.8-.8-.4 0-.8.3-.8.8v10.4c0 .4.3.8.8.8.4 0 .8-.3.8-.8V47.4zM121 60.5c-.4 0-.8.3-.8.8v3.4c0 .4.3.8.8.8.4 0 .8-.3.8-.8v-3.4c-.1-.5-.4-.8-.8-.8zM6.6 106c-.3-.3-.8-.3-1.1 0-.3.3-.3.8 0 1.1l1.5 1.5c.1.1.3.2.5.2s.4-.1.5-.2c.3-.3.3-.8 0-1.1L6.6 106zM11.3 110.7c-.3-.3-.8-.3-1.1 0-.3.3-.3.8 0 1.1l1.5 1.5c.1.1.3.2.5.2s.4-.1.5-.2c.3-.3.3-.8 0-1.1l-1.4-1.5zM7 110.7l-1.5 1.5c-.3.3-.3.8 0 1.1.1.1.3.2.5.2s.4-.1.5-.2l1.5-1.5c.3-.3.3-.8 0-1.1-.3-.3-.8-.3-1 0zM11.7 106l-1.5 1.5c-.3.3-.3.8 0 1.1.1.1.3.2.5.2s.4-.1.5-.2l1.5-1.5c.3-.3.3-.8 0-1.1-.3-.3-.7-.3-1 0zM84.2 101.3c-.3-.3-.8-.3-1.1 0-.3.3-.3.8 0 1.1l1.5 1.5c.1.1.3.2.5.2s.4-.1.5-.2c.3-.3.3-.8 0-1.1l-1.4-1.5zM88.9 106c-.3-.3-.8-.3-1.1 0-.3.3-.3.8 0 1.1l1.5 1.5c.1.1.3.2.5.2s.4-.1.5-.2c.3-.3.3-.8 0-1.1l-1.4-1.5zM84.6 106l-1.5 1.5c-.3.3-.3.8 0 1.1.1.1.3.2.5.2s.4-.1.5-.2l1.5-1.5c.3-.3.3-.8 0-1.1-.2-.3-.7-.3-1 0zM89.3 101.3l-1.5 1.5c-.3.3-.3.8 0 1.1.1.1.3.2.5.2s.4-.1.5-.2l1.5-1.5c.3-.3.3-.8 0-1.1-.2-.3-.7-.3-1 0zM70.7 19.7c.1.1.3.2.5.2s.4-.1.5-.2c.3-.3.3-.8 0-1.1l-1.5-1.5c-.3-.3-.8-.3-1.1 0-.3.3-.3.8 0 1.1l1.6 1.5zM75.4 24.4c.1.1.3.2.5.2s.4-.1.5-.2c.3-.3.3-.8 0-1.1l-1.5-1.5c-.3-.3-.8-.3-1.1 0-.3.3-.3.8 0 1.1l1.6 1.5zM69.8 24.6c.2 0 .4-.1.5-.2l1.5-1.5c.3-.3.3-.8 0-1.1-.3-.3-.8-.3-1.1 0l-1.5 1.5c-.3.3-.3.8 0 1.1.2.1.4.2.6.2zM74.5 19.9c.2 0 .4-.1.5-.2l1.5-1.5c.3-.3.3-.8 0-1.1-.3-.3-.8-.3-1.1 0L74 18.6c-.3.3-.3.8 0 1.1.1.1.3.2.5.2zM3.5 37.8c.2.2.3.3.5.3s.4-.1.5-.2c.3-.3.3-.8 0-1.1L3 35.3c-.2-.3-.7-.3-1 0-.3.3-.3.8 0 1.1l1.5 1.4zM7.8 40c-.3-.3-.8-.3-1.1 0-.3.3-.3.8 0 1.1l1.5 1.5c.1.1.3.2.5.2s.4-.1.5-.2c.3-.3.3-.8 0-1.1L7.8 40zM2 42.6c.1.1.3.2.5.2s.4-.1.5-.2l1.5-1.5c.3-.3.3-.8 0-1.1-.3-.3-.8-.3-1.1 0L2 41.5c-.2.3-.2.8 0 1.1zM8.2 35.3l-1.5 1.5c-.3.3-.3.8 0 1.1.1.1.3.2.5.2s.4-.1.5-.2l1.5-1.5c.3-.3.3-.8 0-1.1-.2-.3-.7-.3-1 0zM120.4 74.3c-1.8 0-3.3 1.5-3.3 3.3 0 1.8 1.5 3.3 3.3 3.3 1.8 0 3.3-1.5 3.3-3.3 0-1.8-1.5-3.3-3.3-3.3zm0 5.1c-1 0-1.8-.8-1.8-1.8s.8-1.8 1.8-1.8 1.8.8 1.8 1.8-.8 1.8-1.8 1.8zM86.4 15.9c1.8 0 3.3-1.5 3.3-3.3 0-1.8-1.5-3.3-3.3-3.3-1.8 0-3.3 1.5-3.3 3.3-.1 1.8 1.4 3.3 3.3 3.3zm0-5.1c1 0 1.8.8 1.8 1.8s-.8 1.8-1.8 1.8-1.8-.8-1.8-1.8.8-1.8 1.8-1.8zM5.2 78.7c-1.8 0-3.2 1.4-3.2 3.2s1.4 3.2 3.2 3.2c1.8 0 3.2-1.4 3.2-3.2s-1.5-3.2-3.2-3.2zm0 4.9c-.9 0-1.7-.8-1.7-1.7 0-.9.8-1.7 1.7-1.7.9 0 1.7.8 1.7 1.7 0 .9-.8 1.7-1.7 1.7zM122.5 108.6h-11.3c-.4 0-.8.3-.8.8 0 .4.3.8.8.8h11.3c.4 0 .8-.3.8-.8-.1-.5-.4-.8-.8-.8zM103.9 108.6c-.4 0-.8.3-.8.8 0 .4.3.8.8.8h3.6c.4 0 .8-.3.8-.8 0-.4-.3-.8-.8-.8h-3.6zM111.7 112.4h-7.9c-.4 0-.8.3-.8.8 0 .4.3.8.8.8h7.9c.4 0 .8-.3.8-.8 0-.4-.4-.8-.8-.8zM117.6 112.4h-2.5c-.4 0-.8.3-.8.8 0 .4.3.8.8.8h2.5c.4 0 .8-.3.8-.8 0-.4-.3-.8-.8-.8zM8.6 17.2h11.3c.4 0 .8-.3.8-.8 0-.4-.3-.8-.8-.8H8.6c-.4 0-.8.3-.8.8s.4.8.8.8zM1.3 17.2h3.6c.4 0 .8-.3.8-.8 0-.4-.3-.8-.8-.8H1.3c-.4 0-.8.3-.8.8s.3.8.8.8zM9.1 19.6H1.3c-.4 0-.8.3-.8.8 0 .4.3.8.8.8h7.9c.4 0 .8-.3.8-.8-.1-.5-.5-.8-.9-.8zM15.8 20.3c0-.4-.3-.8-.8-.8h-2.5c-.4 0-.8.3-.8.8 0 .4.3.8.8.8H15c.5 0 .8-.4.8-.8zM34.7 108H23.5c-.4 0-.8.3-.8.8 0 .4.3.8.8.8h11.3c.4 0 .8-.3.8-.8-.1-.5-.4-.8-.9-.8zM42.1 108h-3.6c-.4 0-.8.3-.8.8 0 .4.3.8.8.8h3.6c.4 0 .8-.3.8-.8-.1-.5-.4-.8-.8-.8zM42.1 104.1h-7.9c-.4 0-.8.3-.8.8 0 .4.3.8.8.8h7.9c.4 0 .8-.3.8-.8-.1-.4-.4-.8-.8-.8zM30.8 105.6c.4 0 .8-.3.8-.8 0-.4-.3-.8-.8-.8h-2.5c-.4 0-.8.3-.8.8 0 .4.3.8.8.8h2.5z"></path><path d="M78.2 112.8h-4.7L70.1 97h37.2c3.7 0 6.6-3 6.6-6.6V42c7.9-1.7 13.6-8.6 13.6-16.7 0-9.4-7.7-17.1-17.1-17.1-9.4 0-17.1 7.7-17.1 17.1 0 1.1.1 2.1.3 3.1H62.7v-8.5-.1c.1-.2 0-.5-.2-.7l-7.3-7.3c-.1-.1-.1-.1-.2-.1h-6.5c-.2-2-1.9-3.6-3.9-3.6s-3.7 1.6-3.9 3.6h-1.3c-.2-2-1.9-3.6-3.9-3.6s-3.7 1.6-3.9 3.6h-.9c-1.6 0-3 1.3-3 3v13.9h-5.5c-3.7 0-6.6 3-6.6 6.6v55.3c0 3.7 3 6.6 6.6 6.6h37.2L56 112.9h-4.7c-1.7 0-3.2 1.4-3.2 3.2v1c0 1.7 1.4 3.2 3.2 3.2h27.1c1.7 0 3.2-1.4 3.2-3.2v-1c-.2-1.9-1.6-3.3-3.4-3.3zM110.4 9.7c8.6 0 15.6 7 15.6 15.6 0 7.6-5.4 14.1-12.9 15.4-.9.2-1.8.2-2.7.2-7.2 0-13.5-4.9-15.2-11.9-.3-1.2-.4-2.4-.4-3.7 0-8.6 7-15.6 15.6-15.6zm-55 4.4l4.8 4.8h-4.8v-4.8zM44.5 9.5c1.2 0 2.2.9 2.4 2.1H42c.3-1.3 1.3-2.1 2.5-2.1zm-9.1 0c1.2 0 2.2.9 2.4 2.1h-4.9c.3-1.3 1.3-2.1 2.5-2.1zm-6.3 5c0-.8.7-1.5 1.5-1.5h7.1c-.4.8-1.2 1.4-2.2 1.4-.4 0-.8.3-.8.8 0 .4.3.8.8.8 1.8 0 3.3-1.2 3.8-2.9h7.6c-.4.8-1.2 1.4-2.2 1.4-.4 0-.8.3-.8.8 0 .4.3.8.8.8 1.8 0 3.3-1.2 3.8-2.9H54v6.6c0 .4.3.8.8.8h6.6V54c0 .8-.7 1.5-1.5 1.5H30.5c-.8 0-1.5-.7-1.5-1.5V14.5zM17 35.1c0-2.8 2.3-5.1 5.1-5.1h5.5v24c0 1.6 1.3 3 3 3h29.2c1.6 0 3-1.3 3-3V29.9H94c2.1 7.4 8.8 12.5 16.5 12.5.7 0 1.3-.1 2-.1v45.5H17V35.1zm5.1 60.4c-2.8 0-5.1-2.3-5.1-5.1v-1h95.5v1c0 2.8-2.3 5.1-5.1 5.1H22.1zM60.8 97h7.7l3.4 15.8H57.4L60.8 97zm19.1 19.9c0 .9-.7 1.6-1.6 1.6H51.2c-.9 0-1.6-.7-1.6-1.6v-1c0-.9.7-1.6 1.6-1.6h27c.9 0 1.6.7 1.6 1.6v1z"></path><path d="M83.4 54.1c-2.6 2.5-2.6 6.6-.1 9.2 1.3 1.3 3 2 4.6 2 1.6 0 3.3-.6 4.5-1.8 2.6-2.5 2.6-6.6.1-9.2-2.4-2.7-6.5-2.7-9.1-.2zm8 8.2c-2 1.9-5.1 1.9-7-.1-1.9-2-1.9-5.1.1-7 2-1.9 5.1-1.9 7 .1 1.9 1.9 1.9 5.1-.1 7z"></path><path d="M104.3 54.5c-.1-.4-.5-.6-.9-.5L99 55c-.5-1.5-1.2-2.8-2.3-4l3.2-3.2c.3-.3.3-.8 0-1.1-.3-.3-.8-.3-1.1 0l-3.2 3.2c-1.2-1.1-2.6-1.8-4.1-2.3l1.1-4.3c.1-.4-.1-.8-.5-.9-.4-.1-.8.1-.9.5l-1.1 4.3c-1.5-.3-3-.3-4.5 0L84.4 43c-.1-.4-.5-.6-.9-.5-.4.1-.6.5-.5.9l1.2 4.3c-1.4.5-2.7 1.2-3.9 2.3l-3.1-3.1c-.3-.3-.8-.3-1.1 0-.3.3-.3.8 0 1.1l3.1 3.1c-1 1.2-1.8 2.5-2.3 4L72.7 54c-.4-.1-.8.1-.9.5-.1.4.1.8.5.9l4.2 1.1c-.3 1.5-.3 3.1 0 4.6l-4.2 1.1c-.4.1-.6.5-.5.9.1.3.4.6.7.6h.2l4.2-1.1c.4 1.1.9 2.1 1.5 3l-1.6 1.6c-.6-.2-1.2-.1-1.7.3L64.7 77.8c-1 1-1 2.7 0 3.7l.5.5c.5.5 1.2.8 1.8.8.7 0 1.3-.3 1.8-.8l10.4-10.4c.3-.3.5-.7.5-1.1 0-.2 0-.4-.1-.6l1.6-1.6c.9.7 2 1.2 3 1.5L83.1 74c-.1.4.1.8.5.9h.2c.3 0 .6-.2.7-.6l1.1-4.2c.7.1 1.5.2 2.3.2.8 0 1.6-.1 2.3-.2l1.1 4.2c.1.3.4.6.7.6h.2c.4-.1.6-.5.5-.9l-1.1-4.2c1.4-.5 2.8-1.2 3.9-2.3l3.1 3.1c.1.1.3.2.5.2s.4-.1.5-.2c.3-.3.3-.8 0-1.1l-3.1-3.1c1-1.2 1.8-2.5 2.3-3.9l4.3 1.2h.2c.3 0 .6-.2.7-.6.1-.4-.1-.8-.5-.9L99.4 61c.3-1.5.3-3 0-4.5l4.3-1.1c.4-.1.7-.5.6-.9zM67.8 80.9c-.4.4-1.1.4-1.6 0l-.5-.5c-.4-.4-.4-1.1 0-1.6l10.5-10.4 2 2-10.4 10.5zm10.8-12.2l-.7-.7 1.4-1.4.7.7-1.4 1.4zM95 66c-4 3.9-10.5 3.8-14.4-.2-3.9-4-3.8-10.5.2-14.4 4-3.9 10.5-3.8 14.4.2 3.9 4 3.9 10.5-.2 14.4zM110.4 27.4h.2l2 4c.1.3.4.4.7.4.1 0 .2 0 .3-.1.4-.2.5-.6.3-1l-2-4 .1-.1c0-.1.1-.1.1-.2.1-.1.1-.2.2-.4 0-.1.1-.1.1-.2.1-.2.1-.4.1-.6v-.1l8.1-3.7c.4-.2.5-.6.4-1-.2-.4-.6-.5-1-.4l-8.1 3.7c-.4-.4-.9-.6-1.5-.6-1.2 0-2.1.9-2.1 2.1 0 1.3.9 2.2 2.1 2.2zM110.4 14.2c.4 0 .8-.3.8-.8v-1.8c0-.4-.3-.8-.8-.8-.4 0-.8.3-.8.8v1.8c0 .5.4.8.8.8zM96.7 26.1h1.8c.4 0 .8-.3.8-.8 0-.4-.3-.8-.8-.8h-1.8c-.4 0-.8.3-.8.8.1.4.4.8.8.8zM110.4 36.3c-.4 0-.8.3-.8.8v1.8c0 .4.3.8.8.8.4 0 .8-.3.8-.8v-1.8c-.1-.4-.4-.8-.8-.8zM122.2 26.1h1.8c.4 0 .8-.3.8-.8 0-.4-.3-.8-.8-.8h-1.8c-.4 0-.8.3-.8.8 0 .4.4.8.8.8zM58.3 63.1H23.5c-.4 0-.8.3-.8.8 0 .4.3.8.8.8h34.9c.4 0 .8-.3.8-.8-.1-.5-.5-.8-.9-.8zM58.3 68.9H23.5c-.4 0-.8.3-.8.8 0 .4.3.8.8.8h34.9c.4 0 .8-.3.8-.8-.1-.5-.5-.8-.9-.8zM58.3 74.6H23.5c-.4 0-.8.3-.8.8 0 .4.3.8.8.8h34.9c.4 0 .8-.3.8-.8-.1-.4-.5-.8-.9-.8zM47.8 80.4H23.5c-.4 0-.8.3-.8.8 0 .4.3.8.8.8h24.3c.4 0 .8-.3.8-.8-.1-.5-.4-.8-.8-.8zM36.3 27.9H54c.4 0 .8-.3.8-.8 0-.4-.3-.8-.8-.8H36.3c-.4 0-.8.3-.8.8s.4.8.8.8zM36.3 33.7H54c.4 0 .8-.3.8-.8 0-.4-.3-.8-.8-.8H36.3c-.4 0-.8.3-.8.8s.4.8.8.8zM36.3 39.5H54c.4 0 .8-.3.8-.8 0-.4-.3-.8-.8-.8H36.3c-.4 0-.8.3-.8.8 0 .4.4.8.8.8zM36.3 45.2h12.4c.4 0 .8-.3.8-.8 0-.4-.3-.8-.8-.8H36.3c-.4 0-.8.3-.8.8s.4.8.8.8z"></path></g><defs data-v-fde0c5aa=""><!----></defs><g data-v-fde0c5aa="" id="098aaff9-6424-4d00-ad52-dad52827cdbf" fill="#000000" transform="matrix(0.8338525619430441,0,0,0.8338525619430441,126.30008886312872,163.84809454974507)"><path d="M0.48 10.50L3.79 10.50L3.79 10.09C2.88 10.02 2.55 9.98 2.46 9.39C2.39 8.93 2.37 8.40 2.37 7.66L2.37 2.10L2.39 2.10L6.01 10.33L6.38 10.33L10.04 2.10L10.08 2.10L10.08 9.20C10.08 9.98 10.05 10.01 8.82 10.09L8.82 10.50L12.73 10.50L12.73 10.09C11.51 10.01 11.47 9.98 11.47 9.20L11.47 2.11C11.47 1.33 11.51 1.30 12.73 1.22L12.73 0.81L9.91 0.81C9.44 2.06 8.86 3.29 8.30 4.52L6.62 8.27L6.59 8.27L4.94 4.54C4.40 3.29 3.81 2.06 3.30 0.81L0.46 0.81L0.46 1.22C1.69 1.30 1.72 1.33 1.72 2.11L1.72 7.66C1.72 8.40 1.69 8.93 1.62 9.39C1.54 9.98 1.20 10.04 0.48 10.09ZM13.90 7.07C13.90 9.34 15.01 10.67 17.26 10.67C19.52 10.67 20.62 9.34 20.62 7.07C20.62 4.80 19.52 3.47 17.26 3.47C15.01 3.47 13.90 4.80 13.90 7.07ZM15.36 7.07C15.36 5.14 15.97 3.96 17.26 3.96C18.55 3.96 19.17 5.14 19.17 7.07C19.17 9.00 18.55 10.18 17.26 10.18C15.97 10.18 15.36 9.00 15.36 7.07ZM21.74 10.50L25.44 10.50L25.44 10.09C24.19 10.02 24.11 10.00 24.11 9.28L24.11 6.01C24.11 4.93 24.58 4.56 24.91 4.56C25.13 4.56 25.37 4.65 25.77 4.87C25.87 4.93 25.98 4.94 26.05 4.94C26.39 4.94 26.70 4.59 26.70 4.16C26.70 3.85 26.50 3.47 25.96 3.47C25.45 3.47 25.03 3.78 24.11 4.59L23.94 3.47L21.81 3.82L21.81 4.17L22.34 4.24C22.71 4.30 22.79 4.37 22.79 4.87L22.79 9.28C22.79 10.00 22.72 10.02 21.74 10.09ZM27.43 7.13C27.43 9.34 28.38 10.67 30.66 10.67C32.21 10.67 33.01 9.80 33.39 8.69L32.97 8.47C32.58 9.28 32.05 9.95 30.94 9.95C29.20 9.95 28.85 8.27 28.88 6.82L32.91 6.82C33.21 6.82 33.47 6.75 33.47 6.29C33.47 5.46 33.21 3.47 30.65 3.47C28.46 3.47 27.43 5.03 27.43 7.13ZM28.90 6.29C28.90 5.71 29.11 3.96 30.56 3.96C31.86 3.96 32.02 5.29 32.02 5.84C32.02 6.10 31.93 6.29 31.54 6.29ZM37.77 7.21C37.77 9.28 38.85 10.67 40.70 10.67C41.45 10.67 42.11 10.33 42.87 9.72L42.87 10.40L42.98 10.50L45.25 10.50L45.25 10.09C44.25 10.02 44.20 10.00 44.20 9.28L44.20 0.20L44.10 0.11L41.90 0.46L41.90 0.81L42.43 0.87C42.80 0.91 42.88 0.98 42.88 1.51L42.88 3.81C42.49 3.60 41.97 3.47 41.33 3.47C40.18 3.47 39.33 3.84 38.74 4.44C38.14 5.07 37.77 5.99 37.77 7.21ZM39.23 7.04C39.23 5.22 39.89 3.96 41.31 3.96C41.97 3.96 42.50 4.27 42.76 4.84C42.87 5.08 42.88 5.28 42.88 5.66L42.88 8.12C42.88 8.43 42.87 8.67 42.78 8.90C42.50 9.63 41.89 9.91 41.16 9.91C39.87 9.91 39.23 8.65 39.23 7.04ZM46.75 1.34C46.75 1.85 47.10 2.20 47.60 2.20C48.10 2.20 48.45 1.85 48.45 1.34C48.45 0.84 48.10 0.49 47.60 0.49C47.10 0.49 46.75 0.84 46.75 1.34ZM45.91 10.50L49.32 10.50L49.32 10.09C48.33 10.02 48.27 10.00 48.27 9.28L48.27 3.56L48.17 3.47L45.98 3.82L45.98 4.17L46.51 4.24C46.87 4.30 46.96 4.37 46.96 4.87L46.96 9.28C46.96 10.00 46.91 10.02 45.91 10.09ZM49.95 4.20L51.03 4.20L51.03 9.28C51.03 10.00 50.99 10.02 49.98 10.09L49.98 10.50L53.68 10.50L53.68 10.09C52.40 10.04 52.35 10.01 52.35 9.30L52.35 4.20L54.05 4.20L54.05 3.64L52.35 3.64L52.29 2.07C52.25 0.74 52.74 0.60 52.96 0.60C53.26 0.60 53.56 0.74 53.91 1.55C53.98 1.69 54.08 1.79 54.29 1.79C54.57 1.79 54.98 1.55 54.98 1.13C54.98 0.67 54.39 0.11 53.27 0.11C52.50 0.11 51.84 0.46 51.49 0.99C51.17 1.48 51.03 2.23 51.03 3.15L51.03 3.64L49.95 3.64ZM54.42 4.20L55.50 4.20L55.50 9.28C55.50 10.00 55.45 10.02 54.45 10.09L54.45 10.50L58.14 10.50L58.14 10.09C56.87 10.04 56.81 10.01 56.81 9.30L56.81 4.20L58.52 4.20L58.52 3.64L56.81 3.64L56.76 2.07C56.71 0.74 57.20 0.60 57.43 0.60C57.72 0.60 58.03 0.74 58.38 1.55C58.45 1.69 58.55 1.79 58.76 1.79C59.04 1.79 59.44 1.55 59.44 1.13C59.44 0.67 58.86 0.11 57.74 0.11C56.97 0.11 56.31 0.46 55.96 0.99C55.64 1.48 55.50 2.23 55.50 3.15L55.50 3.64L54.42 3.64ZM59.15 7.13C59.15 9.34 60.10 10.67 62.38 10.67C63.94 10.67 64.74 9.80 65.11 8.69L64.69 8.47C64.30 9.28 63.77 9.95 62.66 9.95C60.93 9.95 60.58 8.27 60.61 6.82L64.64 6.82C64.93 6.82 65.20 6.75 65.20 6.29C65.20 5.46 64.93 3.47 62.37 3.47C60.19 3.47 59.15 5.03 59.15 7.13ZM60.62 6.29C60.62 5.71 60.83 3.96 62.29 3.96C63.59 3.96 63.74 5.29 63.74 5.84C63.74 6.10 63.66 6.29 63.27 6.29ZM66.11 10.50L69.80 10.50L69.80 10.09C68.56 10.02 68.47 10.00 68.47 9.28L68.47 6.01C68.47 4.93 68.95 4.56 69.27 4.56C69.50 4.56 69.73 4.65 70.14 4.87C70.24 4.93 70.35 4.94 70.42 4.94C70.76 4.94 71.06 4.59 71.06 4.16C71.06 3.85 70.87 3.47 70.32 3.47C69.82 3.47 69.40 3.78 68.47 4.59L68.31 3.47L66.18 3.82L66.18 4.17L66.71 4.24C67.07 4.30 67.16 4.37 67.16 4.87L67.16 9.28C67.16 10.00 67.09 10.02 66.11 10.09ZM71.79 7.13C71.79 9.34 72.74 10.67 75.03 10.67C76.58 10.67 77.38 9.80 77.76 8.69L77.34 8.47C76.94 9.28 76.41 9.95 75.31 9.95C73.57 9.95 73.22 8.27 73.25 6.82L77.28 6.82C77.57 6.82 77.84 6.75 77.84 6.29C77.84 5.46 77.57 3.47 75.01 3.47C72.83 3.47 71.79 5.03 71.79 7.13ZM73.26 6.29C73.26 5.71 73.47 3.96 74.93 3.96C76.23 3.96 76.38 5.29 76.38 5.84C76.38 6.10 76.30 6.29 75.91 6.29ZM78.75 10.50L82.17 10.50L82.17 10.09C81.17 10.02 81.12 10.00 81.12 9.28L81.12 6.01C81.12 5.66 81.14 5.46 81.26 5.24C81.55 4.69 82.18 4.23 82.92 4.23C83.87 4.23 84.39 4.76 84.39 5.98L84.39 9.28C84.39 10.00 84.35 10.02 83.34 10.09L83.34 10.50L86.76 10.50L86.76 10.09C85.76 10.02 85.71 10.00 85.71 9.28L85.71 5.70C85.71 4.28 84.94 3.47 83.65 3.47C82.61 3.47 81.97 3.98 81.10 4.54L80.91 3.47L78.82 3.82L78.82 4.17L79.35 4.24C79.72 4.30 79.80 4.37 79.80 4.87L79.80 9.28C79.80 10.00 79.76 10.02 78.75 10.09ZM87.65 7.14C87.65 9.48 88.80 10.67 90.90 10.67C91.88 10.67 93.20 10.15 93.59 8.65L93.18 8.46C92.75 9.44 92.19 9.94 91.17 9.94C89.50 9.94 89.11 8.20 89.11 6.89C89.11 4.80 89.94 3.96 90.90 3.96C91.55 3.96 91.95 4.42 92.23 5.18C92.32 5.40 92.40 5.54 92.67 5.54C92.95 5.54 93.49 5.36 93.49 4.83C93.49 4.19 92.57 3.47 91.06 3.47C88.51 3.47 87.65 5.28 87.65 7.14ZM94.60 7.13C94.60 9.34 95.55 10.67 97.83 10.67C99.39 10.67 100.18 9.80 100.56 8.69L100.14 8.47C99.75 9.28 99.22 9.95 98.11 9.95C96.38 9.95 96.03 8.27 96.05 6.82L100.09 6.82C100.38 6.82 100.65 6.75 100.65 6.29C100.65 5.46 100.38 3.47 97.82 3.47C95.63 3.47 94.60 5.03 94.60 7.13ZM96.07 6.29C96.07 5.71 96.28 3.96 97.73 3.96C99.04 3.96 99.19 5.29 99.19 5.84C99.19 6.10 99.11 6.29 98.71 6.29ZM101.82 12.21L102.09 12.47C102.79 11.82 103.81 10.89 103.81 9.79C103.81 9.04 103.39 8.53 102.86 8.53C102.42 8.53 102.17 8.86 102.17 9.23C102.17 9.73 102.63 9.98 102.63 10.58C102.63 11.16 102.27 11.72 101.82 12.21ZM108.25 10.50L111.66 10.50L111.66 10.09C110.67 10.02 110.61 10.00 110.61 9.28L110.61 0.20L110.52 0.11L108.32 0.46L108.32 0.81L108.85 0.87C109.21 0.91 109.30 0.98 109.30 1.51L109.30 9.28C109.30 10.00 109.26 10.02 108.25 10.09ZM112.56 7.13C112.56 9.34 113.51 10.67 115.79 10.67C117.35 10.67 118.15 9.80 118.52 8.69L118.10 8.47C117.71 9.28 117.18 9.95 116.07 9.95C114.34 9.95 113.99 8.27 114.02 6.82L118.05 6.82C118.34 6.82 118.61 6.75 118.61 6.29C118.61 5.46 118.34 3.47 115.78 3.47C113.60 3.47 112.56 5.03 112.56 7.13ZM114.03 6.29C114.03 5.71 114.24 3.96 115.70 3.96C117.00 3.96 117.15 5.29 117.15 5.84C117.15 6.10 117.07 6.29 116.68 6.29ZM119.73 8.16L119.87 10.00C120.37 10.44 121.23 10.67 122.05 10.67C123.72 10.67 124.67 9.79 124.67 8.60C124.67 7.36 123.91 6.80 122.47 6.36C121.90 6.17 120.97 5.88 120.97 5.10C120.97 4.37 121.53 3.96 122.23 3.96C123.23 3.96 123.70 4.73 123.80 5.59L124.21 5.59L124.21 3.95C123.75 3.61 123.03 3.47 122.40 3.47C120.89 3.47 119.85 4.19 119.85 5.52C119.85 6.68 120.81 7.20 121.97 7.55C122.60 7.74 123.48 8.06 123.48 9.02C123.48 9.73 122.92 10.18 122.18 10.18C121.04 10.18 120.41 9.35 120.13 8.16ZM125.83 8.16L125.97 10.00C126.48 10.44 127.33 10.67 128.16 10.67C129.82 10.67 130.77 9.79 130.77 8.60C130.77 7.36 130.02 6.80 128.58 6.36C128.00 6.17 127.08 5.88 127.08 5.10C127.08 4.37 127.64 3.96 128.34 3.96C129.33 3.96 129.81 4.73 129.91 5.59L130.31 5.59L130.31 3.95C129.85 3.61 129.14 3.47 128.51 3.47C126.99 3.47 125.96 4.19 125.96 5.52C125.96 6.68 126.91 7.20 128.07 7.55C128.70 7.74 129.58 8.06 129.58 9.02C129.58 9.73 129.02 10.18 128.28 10.18C127.15 10.18 126.52 9.35 126.24 8.16ZM135.11 7.14C135.11 9.48 136.26 10.67 138.36 10.67C139.34 10.67 140.66 10.15 141.05 8.65L140.64 8.46C140.21 9.44 139.65 9.94 138.63 9.94C136.96 9.94 136.57 8.20 136.57 6.89C136.57 4.80 137.40 3.96 138.36 3.96C139.01 3.96 139.41 4.42 139.69 5.18C139.78 5.40 139.86 5.54 140.13 5.54C140.41 5.54 140.95 5.36 140.95 4.83C140.95 4.19 140.03 3.47 138.52 3.47C135.97 3.47 135.11 5.28 135.11 7.14ZM142.06 7.07C142.06 9.34 143.16 10.67 145.42 10.67C147.67 10.67 148.78 9.34 148.78 7.07C148.78 4.80 147.67 3.47 145.42 3.47C143.16 3.47 142.06 4.80 142.06 7.07ZM143.51 7.07C143.51 5.14 144.13 3.96 145.42 3.96C146.71 3.96 147.32 5.14 147.32 7.07C147.32 9.00 146.71 10.18 145.42 10.18C144.13 10.18 143.51 9.00 143.51 7.07ZM150.11 8.16L150.25 10.00C150.75 10.44 151.61 10.67 152.43 10.67C154.10 10.67 155.05 9.79 155.05 8.60C155.05 7.36 154.29 6.80 152.85 6.36C152.28 6.17 151.35 5.88 151.35 5.10C151.35 4.37 151.91 3.96 152.61 3.96C153.61 3.96 154.08 4.73 154.18 5.59L154.59 5.59L154.59 3.95C154.13 3.61 153.41 3.47 152.78 3.47C151.27 3.47 150.23 4.19 150.23 5.52C150.23 6.68 151.19 7.20 152.35 7.55C152.98 7.74 153.86 8.06 153.86 9.02C153.86 9.73 153.30 10.18 152.56 10.18C151.42 10.18 150.79 9.35 150.51 8.16ZM155.99 4.20L157.00 4.20L157.00 9.07C157.00 10.50 158.06 10.67 158.55 10.67C159.26 10.67 159.94 10.30 160.34 10.05L160.23 9.76C159.89 9.90 159.59 9.94 159.24 9.94C158.76 9.94 158.31 9.60 158.31 8.54L158.31 4.20L160.12 4.20L160.12 3.64L158.31 3.64L158.31 1.88L157.91 1.88L157.05 3.64L155.99 3.64Z"></path></g></svg>